<svg width="90" height="60" viewBox="0 0 90 60" fill="none" xmlns="http://www.w3.org/2000/svg">
<path d="M24.8283 11.17C23.4949 11.17 22.4949 10.82 21.8283 10.12C21.1683 9.42 20.8383 8.45667 20.8383 7.23C20.8383 6.48333 20.9883 5.81333 21.2883 5.22C21.5883 4.62 22.0383 4.14667 22.6383 3.8C23.2383 3.45333 23.9683 3.28 24.8283 3.28C25.1816 3.28 25.4949 3.31 25.7683 3.37C26.0483 3.42333 26.3483 3.51667 26.6683 3.65V5.21C26.1016 4.93667 25.5049 4.8 24.8783 4.8C24.4449 4.8 24.0583 4.90667 23.7183 5.12C23.3849 5.32667 23.1249 5.61333 22.9383 5.98C22.7516 6.34667 22.6583 6.76 22.6583 7.22C22.6583 7.95333 22.8483 8.54333 23.2283 8.99C23.6149 9.43 24.1483 9.65 24.8283 9.65C25.1483 9.65 25.4616 9.60333 25.7683 9.51C26.0749 9.41 26.3983 9.27 26.7383 9.09L27.2683 10.56C26.8816 10.76 26.4749 10.91 26.0483 11.01C25.6216 11.1167 25.2149 11.17 24.8283 11.17ZM30.5172 5.34C31.2505 5.34 31.8072 5.44 32.1872 5.64C32.5739 5.83333 32.8305 6.09333 32.9572 6.42C33.0839 6.74667 33.1472 7.16333 33.1472 7.67V11H31.4072V10.54C31.1739 10.7533 30.9439 10.9067 30.7172 11C30.4905 11.0867 30.2405 11.13 29.9672 11.13C29.3272 11.13 28.8239 10.9633 28.4572 10.63C28.0972 10.29 27.9172 9.82 27.9172 9.22C27.9172 8.61333 28.1005 8.14667 28.4672 7.82C28.8405 7.49333 29.3572 7.33 30.0172 7.33C30.5639 7.33 31.0272 7.43 31.4072 7.63C31.4005 7.44333 31.3705 7.29667 31.3172 7.19C31.2705 7.07667 31.1705 6.99 31.0172 6.93C30.8705 6.87 30.6539 6.84 30.3672 6.84H29.2272V5.34H30.5172ZM30.3372 9.79C30.6772 9.79 31.0339 9.63667 31.4072 9.33V8.8C31.0872 8.64667 30.7639 8.57 30.4372 8.57C30.1972 8.57 30.0105 8.62333 29.8772 8.73C29.7439 8.83 29.6772 8.98667 29.6772 9.2C29.6772 9.42 29.7339 9.57333 29.8472 9.66C29.9605 9.74667 30.1239 9.79 30.3372 9.79ZM38.0088 5.22V6.76H37.7788C37.2655 6.76 36.7522 6.94333 36.2388 7.31V11H34.4988V5.34H36.2388V5.84C36.4855 5.63333 36.7322 5.48 36.9788 5.38C37.2322 5.27333 37.4988 5.22 37.7788 5.22H38.0088ZM42.2705 5.18C42.7772 5.18 43.2239 5.29333 43.6105 5.52C44.0039 5.74 44.3105 6.07667 44.5305 6.53C44.7572 6.97667 44.8705 7.52333 44.8705 8.17C44.8705 8.82333 44.7572 9.37667 44.5305 9.83C44.3105 10.2767 44.0039 10.6133 43.6105 10.84C43.2239 11.06 42.7772 11.17 42.2705 11.17C41.7305 11.17 41.2239 10.99 40.7505 10.63V11H39.0105V2.54H40.7505V5.72C41.2239 5.36 41.7305 5.18 42.2705 5.18ZM41.8905 9.63C42.2772 9.63 42.5672 9.50667 42.7605 9.26C42.9605 9.01333 43.0605 8.65 43.0605 8.17C43.0605 7.69667 42.9605 7.33667 42.7605 7.09C42.5672 6.84333 42.2772 6.72 41.8905 6.72C41.5105 6.72 41.1305 6.85667 40.7505 7.13V9.22C41.1305 9.49333 41.5105 9.63 41.8905 9.63ZM48.6046 11.17C47.9513 11.17 47.3979 11.04 46.9446 10.78C46.4913 10.5133 46.1479 10.1533 45.9146 9.7C45.6879 9.24667 45.5746 8.73667 45.5746 8.17C45.5746 7.61 45.6879 7.10333 45.9146 6.65C46.1479 6.19667 46.4913 5.84 46.9446 5.58C47.3979 5.31333 47.9513 5.18 48.6046 5.18C49.2513 5.18 49.8013 5.31333 50.2546 5.58C50.7079 5.84 51.0479 6.19667 51.2746 6.65C51.5013 7.10333 51.6146 7.61 51.6146 8.17C51.6146 8.73667 51.5013 9.24667 51.2746 9.7C51.0479 10.1533 50.7079 10.5133 50.2546 10.78C49.8013 11.04 49.2513 11.17 48.6046 11.17ZM48.6046 9.69C48.9979 9.69 49.2946 9.56 49.4946 9.3C49.7013 9.04 49.8046 8.66333 49.8046 8.17C49.8046 7.68333 49.7013 7.31 49.4946 7.05C49.2946 6.79 48.9979 6.66 48.6046 6.66C48.2046 6.66 47.9013 6.79 47.6946 7.05C47.4879 7.31 47.3846 7.68333 47.3846 8.17C47.3846 8.66333 47.4879 9.04 47.6946 9.3C47.9013 9.56 48.2046 9.69 48.6046 9.69ZM52.6629 5.34H54.4029V11H52.6629V5.34ZM53.6229 2.91H55.6029L54.3929 4.44H52.6429L53.6229 2.91ZM61.3174 2.54V11H59.5774V10.63C59.1041 10.99 58.5974 11.17 58.0574 11.17C57.5508 11.17 57.1008 11.06 56.7074 10.84C56.3208 10.6133 56.0141 10.2767 55.7874 9.83C55.5674 9.37667 55.4574 8.82333 55.4574 8.17C55.4574 7.52333 55.5674 6.97667 55.7874 6.53C56.0141 6.07667 56.3208 5.74 56.7074 5.52C57.1008 5.29333 57.5508 5.18 58.0574 5.18C58.5974 5.18 59.1041 5.36 59.5774 5.72V2.54H61.3174ZM58.4374 9.63C58.8174 9.63 59.1974 9.49333 59.5774 9.22V7.13C59.1974 6.85667 58.8174 6.72 58.4374 6.72C58.0508 6.72 57.7574 6.84333 57.5574 7.09C57.3641 7.33667 57.2674 7.69667 57.2674 8.17C57.2674 8.65 57.3641 9.01333 57.5574 9.26C57.7574 9.50667 58.0508 9.63 58.4374 9.63ZM66.2315 5.22V6.76H66.0015C65.4882 6.76 64.9748 6.94333 64.4615 7.31V11H62.7215V5.34H64.4615V5.84C64.7082 5.63333 64.9548 5.48 65.2015 5.38C65.4548 5.27333 65.7215 5.22 66.0015 5.22H66.2315ZM69.4332 5.34C70.1665 5.34 70.7232 5.44 71.1032 5.64C71.4899 5.83333 71.7465 6.09333 71.8732 6.42C71.9999 6.74667 72.0632 7.16333 72.0632 7.67V11H70.3232V10.54C70.0899 10.7533 69.8599 10.9067 69.6332 11C69.4065 11.0867 69.1565 11.13 68.8832 11.13C68.2432 11.13 67.7399 10.9633 67.3732 10.63C67.0132 10.29 66.8332 9.82 66.8332 9.22C66.8332 8.61333 67.0165 8.14667 67.3832 7.82C67.7565 7.49333 68.2732 7.33 68.9332 7.33C69.4799 7.33 69.9432 7.43 70.3232 7.63C70.3165 7.44333 70.2865 7.29667 70.2332 7.19C70.1865 7.07667 70.0865 6.99 69.9332 6.93C69.7865 6.87 69.5699 6.84 69.2832 6.84H68.1432V5.34H69.4332ZM69.2532 9.79C69.5932 9.79 69.9499 9.63667 70.3232 9.33V8.8C70.0032 8.64667 69.6799 8.57 69.3532 8.57C69.1132 8.57 68.9265 8.62333 68.7932 8.73C68.6599 8.83 68.5932 8.98667 68.5932 9.2C68.5932 9.42 68.6499 9.57333 68.7632 9.66C68.8765 9.74667 69.0399 9.79 69.2532 9.79ZM75.5348 7.08V8.99C75.5348 9.21 75.5715 9.36667 75.6448 9.46C75.7182 9.54667 75.8515 9.59 76.0448 9.59C76.2648 9.59 76.4615 9.56333 76.6348 9.51V10.99C76.4082 11.0367 76.2148 11.07 76.0548 11.09C75.9015 11.1167 75.7348 11.13 75.5548 11.13C74.9615 11.13 74.5182 11 74.2248 10.74C73.9382 10.48 73.7948 10.1067 73.7948 9.62V7.08H73.0148V5.54H73.7948V3.64H75.5348V5.54H76.8148V7.08H75.5348ZM80.4991 11.17C79.8458 11.17 79.2925 11.04 78.8391 10.78C78.3858 10.5133 78.0425 10.1533 77.8091 9.7C77.5825 9.24667 77.4691 8.73667 77.4691 8.17C77.4691 7.61 77.5825 7.10333 77.8091 6.65C78.0425 6.19667 78.3858 5.84 78.8391 5.58C79.2925 5.31333 79.8458 5.18 80.4991 5.18C81.1458 5.18 81.6958 5.31333 82.1491 5.58C82.6025 5.84 82.9425 6.19667 83.1691 6.65C83.3958 7.10333 83.5091 7.61 83.5091 8.17C83.5091 8.73667 83.3958 9.24667 83.1691 9.7C82.9425 10.1533 82.6025 10.5133 82.1491 10.78C81.6958 11.04 81.1458 11.17 80.4991 11.17ZM80.4991 9.69C80.8925 9.69 81.1891 9.56 81.3891 9.3C81.5958 9.04 81.6991 8.66333 81.6991 8.17C81.6991 7.68333 81.5958 7.31 81.3891 7.05C81.1891 6.79 80.8925 6.66 80.4991 6.66C80.0991 6.66 79.7958 6.79 79.5891 7.05C79.3825 7.31 79.2791 7.68333 79.2791 8.17C79.2791 8.66333 79.3825 9.04 79.5891 9.3C79.7958 9.56 80.0991 9.69 80.4991 9.69ZM86.6974 11.17C86.2241 11.17 85.8041 11.13 85.4374 11.05C85.0774 10.9767 84.7008 10.8467 84.3074 10.66V9.13C84.6874 9.34333 85.0708 9.49667 85.4574 9.59C85.8441 9.68333 86.2574 9.73 86.6974 9.73C87.1308 9.73 87.3474 9.6 87.3474 9.34C87.3474 9.23333 87.3174 9.15333 87.2574 9.1C87.1974 9.04667 87.1008 9.00333 86.9674 8.97L85.9974 8.77C85.4308 8.65667 85.0174 8.46333 84.7574 8.19C84.4974 7.91667 84.3674 7.54333 84.3674 7.07C84.3674 6.43 84.5641 5.95667 84.9574 5.65C85.3574 5.33667 85.9608 5.18 86.7674 5.18C87.1008 5.18 87.4474 5.21333 87.8074 5.28C88.1741 5.34667 88.5208 5.43333 88.8474 5.54V7.02C88.5941 6.9 88.2841 6.80333 87.9174 6.73C87.5574 6.65667 87.2041 6.62 86.8574 6.62C86.5841 6.62 86.3941 6.64667 86.2874 6.7C86.1808 6.75333 86.1274 6.83667 86.1274 6.95C86.1274 7.03667 86.1541 7.1 86.2074 7.14C86.2608 7.17333 86.3508 7.20333 86.4774 7.23L87.4474 7.43C88.0341 7.55 88.4574 7.74667 88.7174 8.02C88.9774 8.29333 89.1074 8.7 89.1074 9.24C89.1074 9.88667 88.8908 10.37 88.4574 10.69C88.0241 11.01 87.4374 11.17 86.6974 11.17Z" fill="white"/>
<rect width="14" height="14" fill="#3F7EB8"/>
<path d="M24.0575 45.42C25.0175 45.42 25.7375 45.6333 26.2175 46.06C26.7042 46.48 26.9475 47.11 26.9475 47.95C26.9475 48.77 26.7042 49.3933 26.2175 49.82C25.7375 50.2467 25.0175 50.46 24.0575 50.46H22.7875V53H20.9875V45.42H24.0575ZM24.0575 48.94C24.4175 48.94 24.6842 48.86 24.8575 48.7C25.0308 48.54 25.1208 48.29 25.1275 47.95C25.1275 47.5967 25.0408 47.34 24.8675 47.18C24.6942 47.02 24.4242 46.94 24.0575 46.94H22.7875V48.94H24.0575ZM31.3604 47.22V48.76H31.1304C30.6171 48.76 30.1037 48.9433 29.5904 49.31V53H27.8504V47.34H29.5904V47.84C29.8371 47.6333 30.0837 47.48 30.3304 47.38C30.5837 47.2733 30.8504 47.22 31.1304 47.22H31.3604ZM35.0421 53.17C34.3888 53.17 33.8354 53.04 33.3821 52.78C32.9288 52.5133 32.5854 52.1533 32.3521 51.7C32.1254 51.2467 32.0121 50.7367 32.0121 50.17C32.0121 49.61 32.1254 49.1033 32.3521 48.65C32.5854 48.1967 32.9288 47.84 33.3821 47.58C33.8354 47.3133 34.3888 47.18 35.0421 47.18C35.6888 47.18 36.2388 47.3133 36.6921 47.58C37.1454 47.84 37.4854 48.1967 37.7121 48.65C37.9388 49.1033 38.0521 49.61 38.0521 50.17C38.0521 50.7367 37.9388 51.2467 37.7121 51.7C37.4854 52.1533 37.1454 52.5133 36.6921 52.78C36.2388 53.04 35.6888 53.17 35.0421 53.17ZM35.0421 51.69C35.4354 51.69 35.7321 51.56 35.9321 51.3C36.1388 51.04 36.2421 50.6633 36.2421 50.17C36.2421 49.6833 36.1388 49.31 35.9321 49.05C35.7321 48.79 35.4354 48.66 35.0421 48.66C34.6421 48.66 34.3388 48.79 34.1321 49.05C33.9254 49.31 33.8221 49.6833 33.8221 50.17C33.8221 50.6633 33.9254 51.04 34.1321 51.3C34.3388 51.56 34.6421 51.69 35.0421 51.69ZM41.2204 49.08V50.99C41.2204 51.21 41.2571 51.3667 41.3304 51.46C41.4037 51.5467 41.5371 51.59 41.7304 51.59C41.9504 51.59 42.1471 51.5633 42.3204 51.51V52.99C42.0937 53.0367 41.9004 53.07 41.7404 53.09C41.5871 53.1167 41.4204 53.13 41.2404 53.13C40.6471 53.13 40.2037 53 39.9104 52.74C39.6237 52.48 39.4804 52.1067 39.4804 51.62V49.08H38.7004V47.54H39.4804V45.64H41.2204V47.54H42.5004V49.08H41.2204ZM45.0247 50.71C45.098 51.03 45.248 51.28 45.4747 51.46C45.708 51.64 46.048 51.73 46.4947 51.73C46.7547 51.73 47.0014 51.7 47.2347 51.64C47.4747 51.5733 47.748 51.4633 48.0547 51.31L48.5047 52.65C48.158 52.8433 47.8147 52.9767 47.4747 53.05C47.1347 53.13 46.728 53.17 46.2547 53.17C45.5947 53.17 45.0314 53.0467 44.5647 52.8C44.1047 52.5467 43.7547 52.1933 43.5147 51.74C43.2747 51.2867 43.1547 50.76 43.1547 50.16C43.1547 49.5333 43.278 48.9967 43.5247 48.55C43.7714 48.0967 44.1047 47.7567 44.5247 47.53C44.9447 47.2967 45.4147 47.18 45.9347 47.18C46.768 47.18 47.4214 47.4233 47.8947 47.91C48.368 48.39 48.6047 49.0933 48.6047 50.02V50.71H45.0247ZM45.9347 48.62C45.6947 48.62 45.498 48.68 45.3447 48.8C45.198 48.92 45.0947 49.1267 45.0347 49.42H46.7747C46.748 49.14 46.6647 48.9367 46.5247 48.81C46.3914 48.6833 46.1947 48.62 45.9347 48.62ZM49.6082 47.34H51.3482V53H49.6082V47.34ZM50.5682 44.91H52.5482L51.3382 46.44H49.5882L50.5682 44.91ZM56.0727 47.22C56.8261 47.22 57.3894 47.41 57.7627 47.79C58.1361 48.17 58.3227 48.7733 58.3227 49.6V53H56.5827V49.6C56.5827 49.3267 56.5127 49.12 56.3727 48.98C56.2394 48.8333 56.0094 48.76 55.6827 48.76C55.2961 48.76 54.8994 48.92 54.4927 49.24V53H52.7527V47.34H54.4927V47.79C54.7394 47.5967 54.9894 47.4533 55.2427 47.36C55.5027 47.2667 55.7794 47.22 56.0727 47.22ZM61.8766 47.34C62.6099 47.34 63.1666 47.44 63.5466 47.64C63.9332 47.8333 64.1899 48.0933 64.3166 48.42C64.4432 48.7467 64.5066 49.1633 64.5066 49.67V53H62.7666V52.54C62.5332 52.7533 62.3032 52.9067 62.0766 53C61.8499 53.0867 61.5999 53.13 61.3266 53.13C60.6866 53.13 60.1832 52.9633 59.8166 52.63C59.4566 52.29 59.2766 51.82 59.2766 51.22C59.2766 50.6133 59.4599 50.1467 59.8266 49.82C60.1999 49.4933 60.7166 49.33 61.3766 49.33C61.9232 49.33 62.3866 49.43 62.7666 49.63C62.7599 49.4433 62.7299 49.2967 62.6766 49.19C62.6299 49.0767 62.5299 48.99 62.3766 48.93C62.2299 48.87 62.0132 48.84 61.7266 48.84H60.5866V47.34H61.8766ZM61.6966 51.79C62.0366 51.79 62.3932 51.6367 62.7666 51.33V50.8C62.4466 50.6467 62.1232 50.57 61.7966 50.57C61.5566 50.57 61.3699 50.6233 61.2366 50.73C61.1032 50.83 61.0366 50.9867 61.0366 51.2C61.0366 51.42 61.0932 51.5733 61.2066 51.66C61.3199 51.7467 61.4832 51.79 61.6966 51.79ZM67.9982 53.17C67.5249 53.17 67.1049 53.13 66.7382 53.05C66.3782 52.9767 66.0015 52.8467 65.6082 52.66V51.13C65.9882 51.3433 66.3715 51.4967 66.7582 51.59C67.1449 51.6833 67.5582 51.73 67.9982 51.73C68.4315 51.73 68.6482 51.6 68.6482 51.34C68.6482 51.2333 68.6182 51.1533 68.5582 51.1C68.4982 51.0467 68.4015 51.0033 68.2682 50.97L67.2982 50.77C66.7315 50.6567 66.3182 50.4633 66.0582 50.19C65.7982 49.9167 65.6682 49.5433 65.6682 49.07C65.6682 48.43 65.8649 47.9567 66.2582 47.65C66.6582 47.3367 67.2615 47.18 68.0682 47.18C68.4015 47.18 68.7482 47.2133 69.1082 47.28C69.4749 47.3467 69.8215 47.4333 70.1482 47.54V49.02C69.8949 48.9 69.5849 48.8033 69.2182 48.73C68.8582 48.6567 68.5049 48.62 68.1582 48.62C67.8849 48.62 67.6949 48.6467 67.5882 48.7C67.4815 48.7533 67.4282 48.8367 67.4282 48.95C67.4282 49.0367 67.4549 49.1 67.5082 49.14C67.5615 49.1733 67.6515 49.2033 67.7782 49.23L68.7482 49.43C69.3349 49.55 69.7582 49.7467 70.0182 50.02C70.2782 50.2933 70.4082 50.7 70.4082 51.24C70.4082 51.8867 70.1915 52.37 69.7582 52.69C69.3249 53.01 68.7382 53.17 67.9982 53.17Z" fill="white"/>
<rect y="42" width="14" height="14" fill="#DCD760"/>
<path d="M27.285 27.37V31.47C26.8783 31.6967 26.4416 31.87 25.975 31.99C25.515 32.11 25.0816 32.17 24.675 32.17C23.815 32.17 23.085 32.0067 22.485 31.68C21.885 31.3467 21.435 30.8833 21.135 30.29C20.835 29.6967 20.685 29.0067 20.685 28.22C20.685 27.4733 20.8283 26.8033 21.115 26.21C21.4083 25.6167 21.8516 25.1467 22.445 24.8C23.045 24.4533 23.7883 24.28 24.675 24.28C25.115 24.28 25.485 24.3233 25.785 24.41C26.0916 24.49 26.435 24.6133 26.815 24.78V26.37C26.475 26.1833 26.1383 26.0433 25.805 25.95C25.4783 25.85 25.1016 25.8 24.675 25.8C24.2283 25.8 23.8383 25.9033 23.505 26.11C23.1783 26.31 22.9283 26.5933 22.755 26.96C22.5883 27.32 22.505 27.73 22.505 28.19C22.505 28.9367 22.695 29.5333 23.075 29.98C23.455 30.4267 23.9883 30.65 24.675 30.65C24.9816 30.65 25.265 30.6033 25.525 30.51V28.91H23.635V27.37H27.285ZM31.2638 32.17C30.6105 32.17 30.0571 32.04 29.6038 31.78C29.1505 31.5133 28.8071 31.1533 28.5738 30.7C28.3471 30.2467 28.2338 29.7367 28.2338 29.17C28.2338 28.61 28.3471 28.1033 28.5738 27.65C28.8071 27.1967 29.1505 26.84 29.6038 26.58C30.0571 26.3133 30.6105 26.18 31.2638 26.18C31.9105 26.18 32.4605 26.3133 32.9138 26.58C33.3671 26.84 33.7071 27.1967 33.9338 27.65C34.1605 28.1033 34.2738 28.61 34.2738 29.17C34.2738 29.7367 34.1605 30.2467 33.9338 30.7C33.7071 31.1533 33.3671 31.5133 32.9138 31.78C32.4605 32.04 31.9105 32.17 31.2638 32.17ZM31.2638 30.69C31.6571 30.69 31.9538 30.56 32.1538 30.3C32.3605 30.04 32.4638 29.6633 32.4638 29.17C32.4638 28.6833 32.3605 28.31 32.1538 28.05C31.9538 27.79 31.6571 27.66 31.2638 27.66C30.8638 27.66 30.5605 27.79 30.3538 28.05C30.1471 28.31 30.0438 28.6833 30.0438 29.17C30.0438 29.6633 30.1471 30.04 30.3538 30.3C30.5605 30.56 30.8638 30.69 31.2638 30.69ZM38.8321 26.22V27.76H38.6021C38.0887 27.76 37.5754 27.9433 37.0621 28.31V32H35.3221V26.34H37.0621V26.84C37.3087 26.6333 37.5554 26.48 37.8021 26.38C38.0554 26.2733 38.3221 26.22 38.6021 26.22H38.8321ZM45.3438 23.54V32H43.6038V31.63C43.1305 31.99 42.6238 32.17 42.0838 32.17C41.5771 32.17 41.1271 32.06 40.7338 31.84C40.3471 31.6133 40.0405 31.2767 39.8138 30.83C39.5938 30.3767 39.4838 29.8233 39.4838 29.17C39.4838 28.5233 39.5938 27.9767 39.8138 27.53C40.0405 27.0767 40.3471 26.74 40.7338 26.52C41.1271 26.2933 41.5771 26.18 42.0838 26.18C42.6238 26.18 43.1305 26.36 43.6038 26.72V23.54H45.3438ZM42.4638 30.63C42.8438 30.63 43.2238 30.4933 43.6038 30.22V28.13C43.2238 27.8567 42.8438 27.72 42.4638 27.72C42.0771 27.72 41.7838 27.8433 41.5838 28.09C41.3905 28.3367 41.2938 28.6967 41.2938 29.17C41.2938 29.65 41.3905 30.0133 41.5838 30.26C41.7838 30.5067 42.0771 30.63 42.4638 30.63ZM52.2679 26.34V32H50.5279V31.55C50.2812 31.7433 50.0279 31.8867 49.7679 31.98C49.5145 32.0733 49.2412 32.12 48.9479 32.12C48.1945 32.12 47.6312 31.93 47.2579 31.55C46.8845 31.17 46.6979 30.5667 46.6979 29.74V26.34H48.4379V29.74C48.4379 30.0133 48.5045 30.2233 48.6379 30.37C48.7779 30.51 49.0112 30.58 49.3379 30.58C49.7245 30.58 50.1212 30.42 50.5279 30.1V26.34H52.2679ZM57.1817 26.22V27.76H56.9517C56.4383 27.76 55.925 27.9433 55.4117 28.31V32H53.6717V26.34H55.4117V26.84C55.6583 26.6333 55.905 26.48 56.1517 26.38C56.405 26.2733 56.6717 26.22 56.9517 26.22H57.1817ZM60.3834 26.34C61.1167 26.34 61.6734 26.44 62.0534 26.64C62.4401 26.8333 62.6967 27.0933 62.8234 27.42C62.9501 27.7467 63.0134 28.1633 63.0134 28.67V32H61.2734V31.54C61.0401 31.7533 60.8101 31.9067 60.5834 32C60.3567 32.0867 60.1067 32.13 59.8334 32.13C59.1934 32.13 58.6901 31.9633 58.3234 31.63C57.9634 31.29 57.7834 30.82 57.7834 30.22C57.7834 29.6133 57.9667 29.1467 58.3334 28.82C58.7067 28.4933 59.2234 28.33 59.8834 28.33C60.4301 28.33 60.8934 28.43 61.2734 28.63C61.2667 28.4433 61.2367 28.2967 61.1834 28.19C61.1367 28.0767 61.0367 27.99 60.8834 27.93C60.7367 27.87 60.5201 27.84 60.2334 27.84H59.0934V26.34H60.3834ZM60.2034 30.79C60.5434 30.79 60.9001 30.6367 61.2734 30.33V29.8C60.9534 29.6467 60.6301 29.57 60.3034 29.57C60.0634 29.57 59.8767 29.6233 59.7434 29.73C59.6101 29.83 59.5434 29.9867 59.5434 30.2C59.5434 30.42 59.6001 30.5733 59.7134 30.66C59.8267 30.7467 59.9901 30.79 60.2034 30.79Z" fill="white"/>
<rect y="21" width="14" height="14" fill="#DC6060"/>
</svg>
